{"title":"Final Fintasy The Spirits Within (2001) BRrip 720p x264 Dual Aud","uid":9450405,"size":993941471,"categoryP":"video","categoryS":"hd___movies","magnet":"?xt=urn:btih:70a968a854cacac894a424fd1313aa7481575996&amp;dn=Final+Fintasy+The+Spirits+Within+%282001%29+BRrip+720p+x264+Dual+Aud&amp;tr=udp%3A%2F%2Ftracker.openbittorrent.com%3A80&amp;tr=udp%3A%2F%2Fopen.demonii.com%3A1337&amp;tr=udp%3A%2F%2Ftracker.coppersurfer.tk%3A6969&amp;tr=udp%3A%2F%2Fexodus.desync.com%3A6969","seeders":1,"leechers":0,"uploader":"Xdesiars","files":2,"time":1389172759,"description":"Format                                   : Matroska\nFormat version                           : Version 4 / Version 2\nFile size                                : 939 MiB\nDuration                                 : 1h 46mn\nOverall bit rate                         : 1 239 Kbps\nMovie name                               : Final Fantasy The Spirits Within (2001) XdesiArsenal [Team ExDRS]\nEncoded date                             : UTC 2013-01-15 16:52:45\nWriting application                      : mkvmerge v6.6.0 ('The Edge Of The In Between') built on Dec  1 2013 17:55:00\nWriting library                          : Lavf54.63.104\n\nVideo\nID                                       : 1\nFormat                                   : AVC\nFormat/Info                              : Advanced Video Codec\nFormat profile                           : &lt;a class=&quot;__cf_email__&quot; href=&quot;/cdn-cgi/l/email-protection&quot; data-cfemail=&quot;f7bf9e909fb7bbc4d9c6&quot;&gt;[email&amp;#160;protected]&lt;/a&gt;&lt;script cf-hash='f9e31' type=&quot;text/javascript&quot;&gt;\n/* &lt;![CDATA[ */!function(){try{var t=&quot;currentScript&quot;in document?document.currentScript:function(){for(var t=document.getElementsByTagName(&quot;script&quot;),e=t.length;e--;)if(t[e].getAttribute(&quot;cf-hash&quot;))return t[e]}();if(t&amp;&amp;t.previousSibling){var e,r,n,i,c=t.previousSibling,a=c.getAttribute(&quot;data-cfemail&quot;);if(a){for(e=&quot;&quot;,r=parseInt(a.substr(0,2),16),n=2;a.length-n;n+=2)i=parseInt(a.substr(n,2),16)^r,e+=String.fromCharCode(i);e=document.createTextNode(e),c.parentNode.replaceChild(e,c)}}}catch(u){}}();/* ]]&gt; */&lt;/script&gt;\nFormat settings, CABAC                   : Yes\nFormat settings, ReFrames                : 1 frame\nCodec ID                                 : V_MPEG4/ISO/AVC\nBit rate                                 : 864 Kbps\nWidth                                    : 1 280 pixels\nHeight                                   : 576 pixels\nDisplay aspect ratio                     : 2.222\nFrame rate mode                          : Variable\nColor space                              : YUV\nChroma subsampling                       : 4:2:0\nBit depth                                : 8 bits\nScan type                                : Progressive\nTitle                                    : Final Fantasy The Spirits Within (2001) XdesiArsenal [Team ExDRS]\nWriting library                          : x264 core 129\nDefault                                  : Yes\nForced                                   : No\n\nAudio #1\nID                                       : 2\nFormat                                   : AC-3\nFormat/Info                              : Audio Coding 3\nMode extension                           : CM (complete main)\nFormat settings, Endianness              : Big\nCodec ID                                 : A_AC3\nDuration                                 : 1h 46mn\nBit rate mode                            : Constant\nBit rate                                 : 224 Kbps\nChannel(s)                               : 2 channels\nChannel positions                        : Front: L R\nSampling rate                            : 48.0 KHz\nBit depth                                : 16 bits\nCompression mode                         : Lossy\nDelay relative to video                  : 7s 700ms\nStream size                              : 170 MiB (18%)\nTitle                                    : XdesiArsenal [Team ExDRS]\nLanguage                                 : Hindi\nDefault                                  : Yes\nForced                                   : No\n\nAudio #2\nID                                       : 3\nFormat                                   : AC-3\nFormat/Info                              : Audio Coding 3\nMode extension                           : CM (complete main)\nFormat settings, Endianness              : Big\nCodec ID                                 : A_AC3\nDuration                                 : 1h 46mn\nBit rate mode                            : Constant\nBit rate                                 : 160 Kbps\nChannel(s)                               : 6 channels\nChannel positions                        : Front: L C R, Side: L R, LFE\nSampling rate                            : 16.0 KHz\nBit depth                                : 16 bits\nCompression mode                         : Lossy\nStream size                              : 121 MiB (13%)\nTitle                                    : XdesiArsenal [Team ExDRS]\nLanguage                                 : English\nDefault                                  : No\nForced                                   : No\n","torrent":{"xt":"urn:btih:70a968a854cacac894a424fd1313aa7481575996","amp;dn":"Final+Fintasy+The+Spirits+Within+%282001%29+BRrip+720p+x264+Dual+Aud","amp;tr":["udp%3A%2F%2Ftracker.openbittorrent.com%3A80","udp%3A%2F%2Fopen.demonii.com%3A1337","udp%3A%2F%2Ftracker.coppersurfer.tk%3A6969","udp%3A%2F%2Fexodus.desync.com%3A6969"],"infoHash":"70a968a854cacac894a424fd1313aa7481575996","infoHashBuffer":{"type":"Buffer","data":[112,169,104,168,84,202,202,200,148,164,36,253,19,19,170,116,129,87,89,150]},"announce":[],"urlList":[]}}